<svg width="35" height="35" viewBox="0 0 35 35" fill="none" xmlns="http://www.w3.org/2000/svg">
<g clip-path="url(#clip0)">
<path d="M0.826328 12.174C0.290254 13.8534 -6.83473e-05 15.6426 1.20692e-08 17.4999C-6.83473e-05 19.3572 0.290322 21.1465 0.826396 22.826L17.5 23.5869L34.1736 22.8261C34.7096 21.1466 35.0001 19.3572 35.0001 17.5C35 15.6427 34.7097 13.8534 34.1736 12.1739L17.5 11.4131L0.826328 12.174Z" fill="#F0F0F0"/>
<path d="M34.1736 12.174L17.5 11.4131L0.826309 12.174C0.667441 12.6719 0.530654 13.1796 0.416016 13.6957H34.5837C34.4692 13.1796 34.3325 12.6718 34.1736 12.174Z" fill="#D80027"/>
<path d="M0.416016 21.3043C0.530518 21.8204 0.667305 22.328 0.826172 22.8259L0.827813 22.826L17.4997 23.5868L34.1733 22.826C34.3322 22.3281 34.469 21.8204 34.5835 21.3043H0.416016Z" fill="#D80027"/>
<path d="M17.4997 34.9999C25.3074 34.9999 31.9198 29.8864 34.1733 22.826H0.826172C3.07964 29.8863 9.69218 34.9999 17.4997 34.9999Z" fill="#6DA544"/>
<path d="M17.4998 6.10358e-05C9.69218 0.000129395 3.07978 5.11362 0.826172 12.174L34.1733 12.174C31.92 5.11355 25.3075 -7.32354e-06 17.4998 6.10358e-05Z" fill="#338AF3"/>
<path d="M7.9967 7.2292C7.9967 5.59015 9.14862 4.22092 10.6869 3.885C10.4505 3.83332 10.2052 3.80536 9.95321 3.80536C8.06225 3.80536 6.5293 5.33825 6.5293 7.22927C6.5293 9.12029 8.06212 10.6532 9.95321 10.6532C10.2052 10.6532 10.4505 10.6252 10.6869 10.5735C9.14869 10.2375 7.9967 8.86825 7.9967 7.2292Z" fill="#F0F0F0"/>
<path d="M12.7104 8.78467L12.9422 9.498H13.6922L13.0854 9.93892L13.3172 10.6522L12.7104 10.2114L12.1035 10.6522L12.3353 9.93892L11.7285 9.498H12.4786L12.7104 8.78467Z" fill="#F0F0F0"/>
<path d="M15.1048 8.78467L15.3366 9.498H16.0867L15.4798 9.93892L15.7116 10.6522L15.1048 10.2114L14.498 10.6522L14.7298 9.93892L14.123 9.498H14.873L15.1048 8.78467Z" fill="#F0F0F0"/>
<path d="M17.4995 8.78467L17.7312 9.498H18.4813L17.8745 9.93892L18.1062 10.6522L17.4995 10.2114L16.8926 10.6522L17.1245 9.93892L16.5176 9.498H17.2677L17.4995 8.78467Z" fill="#F0F0F0"/>
<path d="M19.8921 8.78467L20.1239 9.498H20.8738L20.2671 9.93892L20.4989 10.6522L19.8921 10.2114L19.2852 10.6522L19.517 9.93892L18.9102 9.498H19.6602L19.8921 8.78467Z" fill="#F0F0F0"/>
<path d="M22.2865 8.78467L22.5183 9.498H23.2683L22.6616 9.93892L22.8934 10.6522L22.2865 10.2114L21.6796 10.6522L21.9114 9.93892L21.3047 9.498H22.0547L22.2865 8.78467Z" fill="#F0F0F0"/>
<path d="M15.1048 6.29462L15.3366 7.00788H16.0867L15.4798 7.44886L15.7116 8.16213L15.1048 7.72128L14.498 8.16213L14.7298 7.44886L14.123 7.00788H14.873L15.1048 6.29462Z" fill="#F0F0F0"/>
<path d="M17.4995 6.29462L17.7312 7.00788H18.4813L17.8745 7.44886L18.1062 8.16213L17.4995 7.72128L16.8926 8.16213L17.1245 7.44886L16.5176 7.00788H17.2677L17.4995 6.29462Z" fill="#F0F0F0"/>
<path d="M19.8921 6.29462L20.1239 7.00788H20.8738L20.2671 7.44886L20.4989 8.16213L19.8921 7.72128L19.2852 8.16213L19.517 7.44886L18.9102 7.00788H19.6602L19.8921 6.29462Z" fill="#F0F0F0"/>
<path d="M22.2865 6.29462L22.5183 7.00788H23.2683L22.6616 7.44886L22.8934 8.16213L22.2865 7.72128L21.6796 8.16213L21.9114 7.44886L21.3047 7.00788H22.0547L22.2865 6.29462Z" fill="#F0F0F0"/>
<path d="M17.4995 3.80438L17.7312 4.51778H18.4813L17.8745 4.95863L18.1062 5.67203L17.4995 5.23118L16.8926 5.67203L17.1245 4.95863L16.5176 4.51778H17.2677L17.4995 3.80438Z" fill="#F0F0F0"/>
<path d="M19.8921 3.80438L20.1239 4.51778H20.8738L20.2671 4.95863L20.4989 5.67203L19.8921 5.23118L19.2852 5.67203L19.517 4.95863L18.9102 4.51778H19.6602L19.8921 3.80438Z" fill="#F0F0F0"/>
<path d="M22.2865 3.80438L22.5183 4.51778H23.2683L22.6616 4.95863L22.8934 5.67203L22.2865 5.23118L21.6796 5.67203L21.9114 4.95863L21.3047 4.51778H22.0547L22.2865 3.80438Z" fill="#F0F0F0"/>
</g>
<defs>
<clipPath id="clip0">
<rect width="35" height="35" fill="white"/>
</clipPath>
</defs>
</svg>
