<svg width="238" height="73" viewBox="0 0 238 73" fill="none" xmlns="http://www.w3.org/2000/svg">
<g clip-path="url(#clip0)">
<path d="M103.133 71.947H83.8535L95.9124 1.28101H115.191L103.133 71.947Z" fill="#00579F"/>
<path d="M173.023 3.00853C169.22 1.5787 163.189 0 155.731 0C136.692 0 123.284 9.6221 123.202 23.3788C123.044 33.5285 132.801 39.1658 140.099 42.55C147.558 46.0082 150.094 48.2653 150.094 51.3478C150.018 56.0819 144.066 58.2641 138.515 58.2641C130.818 58.2641 126.694 57.1391 120.426 54.5052L117.887 53.3761L115.189 69.2391C119.711 71.1915 128.042 72.9241 136.692 73C156.921 73 170.091 63.5268 170.247 48.8669C170.324 40.8225 165.172 34.6585 154.064 29.6217C147.321 26.3883 143.191 24.2081 143.191 20.8998C143.27 17.8923 146.684 14.8118 154.296 14.8118C160.564 14.661 165.169 16.0888 168.657 17.5176L170.401 18.268L173.023 3.00853Z" fill="#00579F"/>
<path d="M198.648 46.9125C200.236 42.8528 206.345 27.1408 206.345 27.1408C206.265 27.2916 207.93 23.0062 208.882 20.3753L210.229 26.4643C210.229 26.4643 213.88 43.3794 214.673 46.9125C211.66 46.9125 202.456 46.9125 198.648 46.9125ZM222.446 1.28101H207.534C202.935 1.28101 199.441 2.55796 197.457 7.14419L168.819 71.9459H189.049C189.049 71.9459 192.379 63.2241 193.095 61.3456C195.315 61.3456 214.994 61.3456 217.849 61.3456C218.402 63.8266 220.149 71.9459 220.149 71.9459H238L222.446 1.28101Z" fill="#00579F"/>
<path d="M67.7502 1.28101L48.869 49.4684L46.8058 39.6954C43.3151 28.4187 32.3674 16.1668 20.1504 10.0748L37.4448 71.872H57.8326L88.1368 1.28101H67.7502Z" fill="#00579F"/>
<path d="M31.3364 1.28101H0.317338L0 2.70883C24.1968 8.57301 40.2219 22.7084 46.8059 39.6984L40.0627 7.22112C38.9526 2.70783 35.5409 1.42988 31.3364 1.28101Z" fill="#FAA61A"/>
</g>
<defs>
<clipPath id="clip0">
<rect width="238" height="73" fill="white"/>
</clipPath>
</defs>
</svg>
