<svg width="44" height="40" viewBox="0 0 44 40" fill="none" xmlns="http://www.w3.org/2000/svg">
<path d="M20.6672 16.1597C19.5569 11.282 20.5936 6.16239 23.5141 2.10095C18.6725 2.82217 14.3324 5.48118 11.4909 9.46701C8.64946 13.4528 7.55097 18.4228 8.44786 23.2349" stroke="#686763" stroke-width="3" stroke-linejoin="round"/>
<path d="M13.3096 32.5005C17.2146 36.4828 22.7315 38.4523 28.2756 37.8433C33.8197 37.2342 38.7774 34.114 41.7248 29.3789C38.1278 30.1815 34.3703 29.8481 30.9708 28.4249" stroke="#686763" stroke-width="3" stroke-linejoin="round"/>
<path fill-rule="evenodd" clip-rule="evenodd" d="M24.6206 18.541H23.6819C21.4286 15.7351 17.6635 14.6337 14.2533 15.783C10.843 16.9323 8.51254 20.0878 8.41719 23.6852H7.051C5.43254 23.6179 3.90734 24.4429 3.07803 25.8344C2.24873 27.2259 2.24873 28.9599 3.07803 30.3514C3.90734 31.7429 5.43254 32.5679 7.051 32.5006H24.6054C27.1541 32.5849 29.546 31.2733 30.8453 29.079C32.1446 26.8848 32.1446 24.1568 30.8453 21.9626C29.546 19.7683 27.1541 18.4567 24.6054 18.541H24.6206Z" stroke="#BABABA" stroke-width="3"/>
</svg>
